<svg version="1" xmlns="http://www.w3.org/2000/svg" width="666.667" height="666.667" viewBox="0 0 500.000000 500.000000"><path d="M36 250.5V481h73V283h42l.5 2.7c.4 1.6 2.2 8 4.1 14.3 15 48.6 53.2 87.5 102 103.8 18.5 6.2 36.7 8.7 57.4 7.9 73.7-3.1 134.3-54.6 150.2-127.7 3-14.1 3.3-47.4.5-61.3-13.4-66.3-65-116.6-131.1-127.9-17.6-3-44.1-2.3-61 1.6-44.6 10.3-81.4 37.3-104 76.2-5.4 9.3-11.7 23.5-14.1 31.8l-1.6 5.6H109V93h110V20H36v230.5zM210 56.1v27.1l-6.7-6c-3.8-3.3-11.1-10.4-16.3-15.6l-9.5-9.6H71L58.8 40.8C52 34.7 46.3 29.5 46.1 29.3c-.2-.1 36.5-.3 81.7-.3H210v27.1zM97.2 81.7l2.8 2.9.2 66.9.3 67 25.4.3 25.4.2-.8 5.3c-.4 2.8-1 7.9-1.4 11.2l-.6 6-35.7.3-35.8.2V62.8l8.8 8c4.8 4.4 9.9 9.3 11.4 10.9zm141.2 104c.3 1.6 3.1 17.4 6.1 35.3 3.1 17.9 5.8 33.7 6.1 35.2.7 3.4 3.2 3.7 3.9.5.8-3.4 12.5-71.5 12.5-72.7 0-.6 2.7-1 6.5-1h6.5v138h-13v-24.5c0-19.6-.3-24.5-1.3-24.5-.8 0-3.7 5.6-6.7 13-2.9 7.1-5.9 13-6.5 13-.6 0-3.5-5.9-6.4-13-3.2-8-5.8-13-6.7-13-1.2 0-1.4 4.1-1.4 24.5V321h-12V183h5.9c5.7 0 6 .1 6.5 2.7zM377 247v64h20v10h-32V183h12v64zm-63.2-59.8c.5 1.8 5.6 20.6 11.3 41.8l10.4 38.5.3-41.8.2-41.7h12v137h-11.9l-1.5-5.3c-.8-2.8-5.8-21.4-11.2-41.2-5.3-19.8-10.1-36.4-10.5-36.9-.5-.6-.9 17.2-.9 41.2V321h-12V184h6.5c6.4 0 6.4 0 7.3 3.2zM100 376.9v94.6L88.5 460 77 448.5V260.8l11.5 10.8 11.5 10.7v94.6z"/></svg>